Coordinates
version=1
nRows=17
nColumns=40
inDegrees=yes

Units are S.I. units (second, meters, Newtons, ...)
If the header above contains a line with 'inDegrees', this indicates whether rotational values are in degrees (yes) or radians (no).

endheader
time	pelvis_tilt	pelvis_list	pelvis_rotation	pelvis_tx	pelvis_ty	pelvis_tz	hip_flexion_r	hip_adduction_r	hip_rotation_r	knee_angle_r	knee_angle_r_beta	ankle_angle_r	subtalar_angle_r	mtp_angle_r	hip_flexion_l	hip_adduction_l	hip_rotation_l	knee_angle_l	knee_angle_l_beta	ankle_angle_l	subtalar_angle_l	mtp_angle_l	lumbar_extension	lumbar_bending	lumbar_rotation	arm_flex_r	arm_add_r	arm_rot_r	elbow_flex_r	pro_sup_r	wrist_flex_r	wrist_dev_r	arm_flex_l	arm_add_l	arm_rot_l	elbow_flex_l	pro_sup_l	wrist_flex_l	wrist_dev_l
      3.75000000	    -32.81920842	     -2.27558575	     -2.79235970	     -0.39750867	      0.63286545	     -0.90147407	     91.71061329	     -8.31635732	     -5.47438776	     92.62157674	      1.61655147	     35.62204458	      0.00000000	      0.00000000	     92.78640355	    -19.65608986	      0.25888696	     93.60549172	      1.63372403	     35.18401940	      0.00000000	      0.00000000	     -6.84850787	    -13.90237052	     -5.88721869	      9.80922041	    -39.81151130	     77.27783202	     83.96310508	      3.23886130	      0.00000000	      0.00000000	     11.30289500	    -60.48661894	     81.81541372	    105.30655696	     87.82533729	      0.00000000	      0.00000000
      3.75500000	    -32.86635137	     -2.31485999	     -2.80633171	     -0.39761226	      0.63277333	     -0.90149818	     91.74740913	     -8.29268901	     -5.50942936	     92.61167686	      1.61637869	     35.62638423	      0.00000000	      0.00000000	     92.86473226	    -19.66093700	      0.31844292	     93.61261478	      1.63384835	     35.18575476	      0.00000000	      0.00000000	     -6.81209817	    -13.86034254	     -5.89011147	      9.83467917	    -39.82297157	     77.31645033	     83.96853267	      3.22971013	      0.00000000	      0.00000000	     11.21799973	    -60.48385375	     81.72611221	    105.31189821	     87.81262110	      0.00000000	      0.00000000
      3.76000000	    -32.82825865	     -2.31172688	     -2.82505608	     -0.39759835	      0.63280186	     -0.90152541	     91.71495473	     -8.27828461	     -5.50100392	     92.61028883	      1.61635446	     35.63172778	      0.00000000	      0.00000000	     92.82853987	    -19.68707412	      0.30473627	     93.62846207	      1.63412494	     35.18211412	      0.00000000	      0.00000000	     -6.86868731	    -13.87142789	     -5.90805974	      9.89958954	    -39.82966195	     77.37768715	     83.99263320	      3.25301175	      0.00000000	      0.00000000	     11.12036050	    -60.50719386	     81.60472930	    105.32374031	     87.81898935	      0.00000000	      0.00000000
      3.76500000	    -32.85056558	     -2.35579631	     -2.83748181	     -0.39763452	      0.63274433	     -0.90153618	     91.72749828	     -8.25581107	     -5.53886323	     92.60559707	      1.61627257	     35.62967091	      0.00000000	      0.00000000	     92.88200954	    -19.69516048	      0.36411935	     93.63813185	      1.63429371	     35.18732735	      0.00000000	      0.00000000	     -6.86867794	    -13.82146895	     -5.91704714	      9.92038122	    -39.83528383	     77.40314485	     83.99491996	      3.25253621	      0.00000000	      0.00000000	     11.01899973	    -60.49934672	     81.49467221	    105.31849798	     87.81738236	      0.00000000	      0.00000000
      3.77000000	    -32.80529265	     -2.38919480	     -2.84563968	     -0.39760859	      0.63280065	     -0.90155313	     91.66207281	     -8.25050266	     -5.58338048	     92.59346052	      1.61606075	     35.64460051	      0.00000000	      0.00000000	     92.84336790	    -19.70574244	      0.40492423	     93.64974493	      1.63449639	     35.19590742	      0.00000000	      0.00000000	     -6.97124275	    -13.79885678	     -6.01945046	     10.15800490	    -39.82967456	     77.72605263	     83.95609876	      3.51999248	      0.00000000	      0.00000000	     10.69611054	    -60.56871212	     81.15614459	    105.37351171	     87.86576894	      0.00000000	      0.00000000
      3.77500000	    -32.85706122	     -2.37543822	     -2.87947892	     -0.39770140	      0.63270137	     -0.90152893	     91.73809724	     -8.19031811	     -5.52560650	     92.60895779	      1.61633123	     35.61540064	      0.00000000	      0.00000000	     92.90961513	    -19.74300271	      0.38868971	     93.66264744	      1.63472158	     35.14990042	      0.00000000	      0.00000000	     -7.02600287	    -13.83599381	     -6.19199247	     10.29409349	    -39.77205064	     77.79619803	     83.99372738	      3.16559081	      0.00000000	      0.00000000	      9.74435330	    -60.64407356	     80.06740342	    105.43442216	     87.83040152	      0.00000000	      0.00000000
      3.78000000	    -32.89557785	     -2.43234834	     -2.88194540	     -0.39780767	      0.63264093	     -0.90161156	     91.75395981	     -8.19996913	     -5.60708307	     92.57962575	      1.61581929	     35.63493552	      0.00000000	      0.00000000	     92.98122756	    -19.74185136	      0.44550164	     93.65579456	      1.63460198	     35.18557073	      0.00000000	      0.00000000	     -6.83809695	    -13.77254131	     -5.90374116	      9.98002018	    -39.84015573	     77.48620574	     83.99684450	      3.20132560	      0.00000000	      0.00000000	     10.96134541	    -60.50170919	     81.43426961	    105.34316587	     87.80644900	      0.00000000	      0.00000000
      3.78500000	    -32.89484862	     -2.36324284	     -2.91073354	     -0.39764722	      0.63279097	     -0.90159655	     91.75935933	     -8.20354775	     -5.56944350	     92.55280521	      1.61535118	     35.58645404	      0.00000000	      0.00000000	     92.91765260	    -19.75934319	      0.36780236	     93.63232285	      1.63419232	     35.17985240	      0.00000000	      0.00000000	     -8.08779226	    -13.79411844	     -8.10059311	     12.32843417	    -39.42074912	     79.69521169	     84.02178972	      3.08811871	      0.00000000	      0.00000000	      0.99865457	    -61.01994857	     70.17199227	    105.83679783	     87.83443520	      0.00000000	      0.00000000
      3.79000000	    -32.91162426	     -2.45536888	     -2.95301421	     -0.39768904	      0.63279346	     -0.90153317	     91.72922665	     -8.10620772	     -5.62460364	     92.52196333	      1.61481289	     35.61921998	      0.00000000	      0.00000000	     92.98643621	    -19.81680902	      0.47162793	     93.65700729	      1.63462314	     35.17855433	      0.00000000	      0.00000000	     -8.26153568	    -13.69816354	     -8.42001176	     12.78336803	    -39.39065158	     80.15260828	     84.03438938	      3.92107150	      0.00000000	      0.00000000	     -0.50908756	    -60.97847085	     68.48126802	    105.85103670	     88.06845622	      0.00000000	      0.00000000
      3.79500000	    -32.92617770	     -2.51437499	     -2.99013268	     -0.39795416	      0.63254541	     -0.90161436	     91.77117344	     -8.07905884	     -5.67792652	     92.53585146	      1.61505528	     35.59037685	      0.00000000	      0.00000000	     93.08061035	    -19.82799434	      0.57592835	     93.69945343	      1.63536397	     35.19185848	      0.00000000	      0.00000000	     -6.85034623	    -13.67532751	     -5.84399888	     10.07837808	    -39.90281310	     77.61469247	     84.05953730	      3.20384649	      0.00000000	      0.00000000	     10.71609437	    -60.47064611	     81.13049078	    105.28579641	     87.81307097	      0.00000000	      0.00000000
      3.80000000	    -32.91497104	     -2.51116911	     -3.02682866	     -0.39793777	      0.63258616	     -0.90159165	     91.75704329	     -8.05061998	     -5.68452969	     92.52215932	      1.61481631	     35.57610956	      0.00000000	      0.00000000	     93.06199344	    -19.88203446	      0.55583912	     93.70510143	      1.63546255	     35.17879244	      0.00000000	      0.00000000	     -6.89305244	    -13.71203730	     -5.89578092	     10.18035345	    -39.85363094	     77.74462089	     84.03299384	      3.25904930	      0.00000000	      0.00000000	     10.44000144	    -60.51617732	     80.80973006	    105.31086725	     87.82149290	      0.00000000	      0.00000000
      3.80500000	    -32.92173917	     -2.53261959	     -3.04791239	     -0.39800697	      0.63256078	     -0.90167179	     91.75829273	     -8.02862104	     -5.69332683	     92.51685847	      1.61472379	     35.59951668	      0.00000000	      0.00000000	     93.08989672	    -19.86996417	      0.60334268	     93.70795233	      1.63551230	     35.20516369	      0.00000000	      0.00000000	     -6.86213021	    -13.66419637	     -5.78787130	     10.10291477	    -39.91080954	     77.68300574	     84.08893030	      3.23380887	      0.00000000	      0.00000000	     10.72207048	    -60.44065238	     81.10729248	    105.26295942	     87.81114212	      0.00000000	      0.00000000
      3.81000000	    -32.99951347	     -2.57368230	     -3.07608598	     -0.39811718	      0.63251513	     -0.90166221	     91.82073030	     -7.99408481	     -5.73326275	     92.47440648	      1.61398287	     35.51602151	      0.00000000	      0.00000000	     93.20001336	    -19.89947227	      0.65861274	     93.71122119	      1.63556936	     35.13414214	      0.00000000	      0.00000000	     -6.97510663	    -13.62255979	     -6.15595758	     10.58871778	    -39.83674427	     78.22721723	     84.03937046	      3.41923712	      0.00000000	      0.00000000	      9.02062926	    -60.57001248	     79.18365728	    105.31960891	     87.89512059	      0.00000000	      0.00000000
      3.81500000	    -32.99170742	     -2.63844166	     -3.14977583	     -0.39811336	      0.63246257	     -0.90152236	     91.79739650	     -7.89415653	     -5.79266974	     92.47471192	      1.61398820	     35.59374121	      0.00000000	      0.00000000	     93.23113009	    -19.99562717	      0.73360975	     93.75094854	      1.63626273	     35.19827573	      0.00000000	      0.00000000	     -6.78734247	    -13.58953680	     -5.72210341	     10.14574596	    -39.91054860	     77.76577682	     84.08374279	      3.23801095	      0.00000000	      0.00000000	     10.57631065	    -60.45196364	     80.93853342	    105.27152260	     87.81520268	      0.00000000	      0.00000000
      3.82000000	    -33.01056693	     -2.59586744	     -3.14089858	     -0.39812321	      0.63250541	     -0.90167628	     91.81798636	     -7.93552862	     -5.76564239	     92.45523460	      1.61364825	     35.62690786	      0.00000000	      0.00000000	     93.21110273	    -19.95076136	      0.68121547	     93.71125283	      1.63556991	     35.24202847	      0.00000000	      0.00000000	     -7.09059067	    -13.62554785	     -6.33596777	     10.82909603	    -39.80731769	     78.46422898	     84.04183409	      3.68458082	      0.00000000	      0.00000000	      7.94863259	    -60.62288794	     77.97690626	    105.34889620	     87.93231578	      0.00000000	      0.00000000
      3.82500000	    -33.02984685	     -2.62162762	     -3.18733125	     -0.39824181	      0.63244077	     -0.90165595	     91.85013310	     -7.88762406	     -5.78491245	     92.46261157	      1.61377701	     35.56954239	      0.00000000	      0.00000000	     93.26080625	    -20.00328919	      0.72436537	     93.72956725	      1.63588955	     35.21660996	      0.00000000	      0.00000000	     -6.87962592	    -13.61059837	     -5.91623221	     10.43137132	    -39.89523980	     78.06975077	     84.13852581	      3.16860912	      0.00000000	      0.00000000	      9.67243814	    -60.51047142	     79.96030444	    105.34894891	     87.79288554	      0.00000000	      0.00000000
      3.83000000	    -32.94156149	     -2.65922864	     -3.21205019	     -0.39814244	      0.63260327	     -0.90165020	     91.73297961	     -7.86517252	     -5.83037054	     92.45296936	      1.61360872	     35.47318946	      0.00000000	      0.00000000	     93.18509723	    -20.04818376	      0.75694157	     93.76892007	      1.63657639	     35.11325899	      0.00000000	      0.00000000	     -7.19821934	    -13.55717238	     -6.27129501	     10.90998340	    -39.85918967	     78.57454489	     84.12778708	      4.05174167	      0.00000000	      0.00000000	      8.02260695	    -60.63595387	     78.02613132	    105.36178255	     88.08742590	      0.00000000	      0.00000000
